<svg width="32" height="35" viewBox="0 0 32 35" fill="none" xmlns="http://www.w3.org/2000/svg">
<circle cx="16" cy="16" r="16" fill="black"/>
<path d="M6 6V25.3987H8.78477V11.3517H8.96474L14.6858 25.3703H16.997L22.7181 11.3612H22.8981V25.3987H25.6829V6H22.1308L15.9551 21.0795H15.7278L9.55201 6H6Z" fill="white"/>
<path d="M14.7677 29.8182C14.7677 29.5852 14.8245 29.3729 14.9381 29.1811C15.0518 28.9893 15.2045 28.8366 15.3962 28.723C15.588 28.6094 15.8003 28.5526 16.0333 28.5526C16.2236 28.5526 16.3991 28.5916 16.5596 28.6697C16.7201 28.7479 16.8543 28.8551 16.9623 28.9915C17.0716 29.1264 17.1448 29.2805 17.1817 29.4538H16.7854C16.7428 29.299 16.6519 29.1726 16.5127 29.0746C16.3735 28.9766 16.2137 28.9276 16.0333 28.9276C15.8699 28.9276 15.7208 28.968 15.5858 29.049C15.4509 29.1286 15.343 29.2358 15.262 29.3707C15.1824 29.5043 15.1427 29.6534 15.1427 29.8182C15.1427 29.9815 15.1824 30.1307 15.262 30.2656C15.343 30.4006 15.4509 30.5085 15.5858 30.5895C15.7208 30.669 15.8699 30.7088 16.0333 30.7088C16.2137 30.7088 16.3685 30.6598 16.4978 30.5618C16.627 30.4638 16.7137 30.3374 16.7577 30.1825H17.1519C17.1164 30.3558 17.0468 30.5107 16.9431 30.647C16.8394 30.782 16.7094 30.8885 16.5532 30.9666C16.3969 31.0447 16.2236 31.0838 16.0333 31.0838C15.8003 31.0838 15.588 31.027 15.3962 30.9134C15.2045 30.7997 15.0518 30.647 14.9381 30.4553C14.8245 30.2635 14.7677 30.0511 14.7677 29.8182ZM15.9992 32.0682C15.6895 32.0682 15.3983 32.0099 15.1256 31.8935C14.8543 31.777 14.615 31.6158 14.4076 31.4098C14.2016 31.2024 14.0397 30.9631 13.9218 30.6918C13.8053 30.4205 13.7478 30.1293 13.7492 29.8182C13.7506 29.5071 13.8096 29.2159 13.926 28.9446C14.0439 28.6733 14.2059 28.4347 14.4118 28.2287C14.6178 28.0213 14.8564 27.8594 15.1278 27.7429C15.3991 27.6264 15.6895 27.5682 15.9992 27.5682C16.3103 27.5682 16.6015 27.6264 16.8728 27.7429C17.1455 27.8594 17.3841 28.0213 17.5887 28.2287C17.7947 28.4347 17.9559 28.6733 18.0724 28.9446C18.1888 29.2159 18.2478 29.5071 18.2492 29.8182C18.2506 30.1293 18.1931 30.4205 18.0766 30.6918C17.9601 30.9631 17.7989 31.2024 17.593 31.4098C17.387 31.6158 17.1476 31.777 16.8749 31.8935C16.6022 32.0099 16.3103 32.0682 15.9992 32.0682ZM15.9992 31.6932C16.2591 31.6932 16.5028 31.6449 16.73 31.5483C16.9573 31.4503 17.1562 31.3161 17.3266 31.1456C17.4985 30.9737 17.6327 30.7741 17.7293 30.5469C17.8273 30.3196 17.8756 30.0774 17.8742 29.8203C17.8728 29.5604 17.8231 29.3168 17.7251 29.0895C17.6285 28.8622 17.4942 28.6634 17.3224 28.4929C17.1519 28.321 16.9537 28.1868 16.7279 28.0902C16.502 27.9922 16.2591 27.9432 15.9992 27.9432C15.7407 27.9432 15.4985 27.9922 15.2726 28.0902C15.0468 28.1868 14.8479 28.321 14.676 28.4929C14.5056 28.6648 14.3714 28.8643 14.2733 29.0916C14.1753 29.3175 14.1256 29.5604 14.1242 29.8203C14.1228 30.0774 14.1704 30.3196 14.267 30.5469C14.365 30.7727 14.4999 30.9716 14.6718 31.1435C14.8437 31.3139 15.0432 31.4482 15.2705 31.5462C15.4978 31.6442 15.7407 31.6932 15.9992 31.6932Z" fill="white"/>
<path d="M15.7331 11C17.9022 11 19.4367 9.9603 19.877 8.385L18.0446 8.06364C17.695 8.97731 16.8532 9.4436 15.7525 9.4436C14.095 9.4436 12.9813 8.3976 12.9295 6.53245H20V5.86452C20 2.36736 17.8504 1 15.5971 1C12.8259 1 11 3.05419 11 6.02835C11 9.03403 12.8 11 15.7331 11ZM12.936 5.12098C13.0137 3.74732 14.0367 2.5564 15.6101 2.5564C17.1122 2.5564 18.0964 3.6402 18.1029 5.12098H12.936Z" fill="white"/>
</svg>
