<svg width="41" height="11" viewBox="0 0 41 11" fill="none" xmlns="http://www.w3.org/2000/svg">
<rect width="41" height="11" fill="#E5E5E5"/>
<rect width="755" height="720" transform="translate(-73 -98)" fill="white"/>
<circle cx="26" cy="5" r="26" fill="black"/>
<path d="M0 0.654053V10.8457H1.46306V3.46571H1.55761L4.56335 10.8308H5.77759L8.78334 3.47069H8.87789V10.8457H10.3409V0.654053H8.4748L5.23019 8.57647H5.11076L1.86615 0.654053H0Z" fill="white"/>
<path d="M15.7515 11C17.4186 11 18.598 10.1789 18.9364 8.93477L17.5281 8.68098C17.2594 9.40255 16.6124 9.77081 15.7665 9.77081C14.4925 9.77081 13.6366 8.94473 13.5968 7.47171H19.031V6.94421C19.031 4.18232 17.3788 3.10244 15.647 3.10244C13.5171 3.10244 12.1138 4.72474 12.1138 7.0736C12.1138 9.44734 13.4972 11 15.7515 11ZM13.6017 6.357C13.6614 5.27215 14.4477 4.33161 15.657 4.33161C16.8115 4.33161 17.5679 5.18755 17.5729 6.357H13.6017Z" fill="white"/>
<path d="M26.4097 5.06811C26.1012 3.87876 25.1706 3.10244 23.5184 3.10244C21.7916 3.10244 20.5674 4.01312 20.5674 5.3667C20.5674 6.45155 21.2243 7.17313 22.6575 7.49162L23.9514 7.77527C24.6879 7.93949 25.0313 8.26794 25.0313 8.74567C25.0313 9.33786 24.3993 9.80067 23.4239 9.80067C22.5331 9.80067 21.9608 9.41748 21.7817 8.66605L20.3435 8.88501C20.5923 10.2386 21.717 11 23.4338 11C25.2801 11 26.559 10.0196 26.559 8.63619C26.559 7.55631 25.8723 6.88947 24.4689 6.56601L23.2547 6.28733C22.4137 6.08827 22.0504 5.80462 22.0554 5.28708C22.0504 4.69986 22.6874 4.28184 23.5334 4.28184C24.459 4.28184 24.8869 4.79441 25.0611 5.30698L26.4097 5.06811Z" fill="white"/>
<path d="M31.7631 3.20197H30.1955V1.37065H28.7076V3.20197H27.5879V4.3963H28.7076V8.90989C28.7026 10.2983 29.7626 10.9701 30.937 10.9452C31.4098 10.9403 31.7282 10.8507 31.9024 10.786L31.6337 9.55682C31.5342 9.57673 31.35 9.62152 31.1112 9.62152C30.6285 9.62152 30.1955 9.46227 30.1955 8.60135V4.3963H31.7631V3.20197Z" fill="white"/>
<path d="M36.5466 11C38.7014 11 40.1097 9.42246 40.1097 7.05867C40.1097 4.67996 38.7014 3.10244 36.5466 3.10244C34.3919 3.10244 32.9835 4.67996 32.9835 7.05867C32.9835 9.42246 34.3919 11 36.5466 11ZM36.5516 9.7509C35.1433 9.7509 34.4864 8.52173 34.4864 7.0537C34.4864 5.59064 35.1433 4.34654 36.5516 4.34654C37.95 4.34654 38.6069 5.59064 38.6069 7.0537C38.6069 8.52173 37.95 9.7509 36.5516 9.7509Z" fill="white"/>
<path d="M41.2677 0.818182C41.2677 0.585227 41.3245 0.372869 41.4381 0.181108C41.5518 -0.0106534 41.7045 -0.163352 41.8962 -0.276989C42.088 -0.390625 42.3003 -0.447443 42.5333 -0.447443C42.7236 -0.447443 42.8991 -0.408381 43.0596 -0.330256C43.2201 -0.252131 43.3543 -0.144886 43.4623 -0.00852299C43.5716 0.12642 43.6448 0.28054 43.6817 0.453835H43.2854C43.2428 0.299006 43.1519 0.172585 43.0127 0.0745738C42.8735 -0.0234376 42.7137 -0.0724432 42.5333 -0.0724432C42.3699 -0.0724432 42.2208 -0.0319603 42.0858 0.0490056C41.9509 0.128551 41.843 0.235795 41.762 0.370739C41.6824 0.504261 41.6427 0.653409 41.6427 0.818182C41.6427 0.981534 41.6824 1.13068 41.762 1.26562C41.843 1.40057 41.9509 1.50852 42.0858 1.58949C42.2208 1.66903 42.3699 1.70881 42.5333 1.70881C42.7137 1.70881 42.8685 1.6598 42.9978 1.56179C43.127 1.46378 43.2137 1.33736 43.2577 1.18253H43.6519C43.6164 1.35582 43.5468 1.51065 43.4431 1.64702C43.3394 1.78196 43.2094 1.88849 43.0532 1.96662C42.8969 2.04474 42.7236 2.08381 42.5333 2.08381C42.3003 2.08381 42.088 2.02699 41.8962 1.91335C41.7045 1.79972 41.5518 1.64702 41.4381 1.45526C41.3245 1.26349 41.2677 1.05114 41.2677 0.818182ZM42.4992 3.06818C42.1895 3.06818 41.8983 3.00994 41.6256 2.89347C41.3543 2.77699 41.115 2.61577 40.9076 2.4098C40.7016 2.20241 40.5397 1.96307 40.4218 1.69176C40.3053 1.42045 40.2478 1.12926 40.2492 0.818182C40.2506 0.507102 40.3096 0.215909 40.426 -0.055398C40.5439 -0.326705 40.7059 -0.565341 40.9118 -0.771307C41.1178 -0.978693 41.3564 -1.14063 41.6278 -1.2571C41.8991 -1.37358 42.1895 -1.43182 42.4992 -1.43182C42.8103 -1.43182 43.1015 -1.37358 43.3728 -1.2571C43.6455 -1.14063 43.8841 -0.978693 44.0887 -0.771307C44.2947 -0.565341 44.4559 -0.326705 44.5724 -0.055398C44.6888 0.215909 44.7478 0.507102 44.7492 0.818182C44.7506 1.12926 44.6931 1.42045 44.5766 1.69176C44.4601 1.96307 44.2989 2.20241 44.093 2.4098C43.887 2.61577 43.6476 2.77699 43.3749 2.89347C43.1022 3.00994 42.8103 3.06818 42.4992 3.06818ZM42.4992 2.69318C42.7591 2.69318 43.0028 2.64489 43.23 2.5483C43.4573 2.45028 43.6562 2.31605 43.8266 2.1456C43.9985 1.97372 44.1327 1.77415 44.2293 1.54688C44.3273 1.3196 44.3756 1.07741 44.3742 0.820312C44.3728 0.560369 44.3231 0.316761 44.2251 0.0894885C44.1285 -0.137784 43.9942 -0.336648 43.8224 -0.507102C43.6519 -0.678977 43.4537 -0.81321 43.2279 -0.909801C43.002 -1.00781 42.7591 -1.05682 42.4992 -1.05682C42.2407 -1.05682 41.9985 -1.00781 41.7726 -0.909801C41.5468 -0.81321 41.3479 -0.678977 41.176 -0.507102C41.0056 -0.335227 40.8714 -0.135653 40.7733 0.0916193C40.6753 0.317472 40.6256 0.560369 40.6242 0.820312C40.6228 1.07741 40.6704 1.3196 40.767 1.54688C40.865 1.77273 40.9999 1.97159 41.1718 2.14347C41.3437 2.31392 41.5432 2.44815 41.7705 2.54616C41.9978 2.64418 42.2407 2.69318 42.4992 2.69318Z" fill="white"/>
</svg>
